<?xml version="1.0" encoding="utf-8"?>
<!-- Generator: Adobe Illustrator 19.0.0, SVG Export Plug-In . SVG Version: 6.00 Build 0)  -->
<!DOCTYPE svg PUBLIC "-//W3C//DTD SVG 1.1//EN" "http://www.w3.org/Graphics/SVG/1.1/DTD/svg11.dtd">
<svg version="1.1" id="Layer_0_Image" xmlns="http://www.w3.org/2000/svg" xmlns:xlink="http://www.w3.org/1999/xlink" x="0px"
	 y="0px" width="411.3px" height="181px" viewBox="188.3 81.3 411.3 181" enable-background="new 188.3 81.3 411.3 181"
	 xml:space="preserve">
<title>white-pool-dds-logo</title>
<path fill="#57524B" d="M403.4,182c0.6,0.6,1.5,1.1,2.5,1.4c1,0.3,2.3,0.5,3.7,0.5c1,0,2-0.1,3-0.3c1-0.2,1.9-0.5,2.8-0.8
	c0.9-0.4,1.7-0.8,2.6-1.2c0.8-0.5,1.6-1,2.4-1.6c1.3,1.2,2.6,2.1,3.9,2.9c1.3,0.7,2.6,1.1,3.9,1.1c1,0,1.9-0.1,2.7-0.4
	c0.8-0.3,1.6-0.7,2.3-1.2c0.7-0.5,1.2-1.2,1.7-1.9c0.5-0.8,0.8-1.7,1-2.7l-0.9-0.3c-0.5,1.2-1.2,2-2,2.4c-0.8,0.4-1.8,0.7-3,0.7
	c-0.9,0-1.8-0.3-2.9-1.1c-1.1-0.7-2.2-1.6-3.4-2.8c0.6-0.8,1.2-1.6,1.7-2.3c0.5-0.7,0.9-1.5,1.3-2.2c0.4-0.8,0.7-1.6,1-2.4
	c0.3-0.9,0.5-1.8,0.7-2.9l-1.2-0.3c-0.2,1.1-0.7,2.4-1.5,3.8c-0.8,1.5-1.9,3.1-3.4,4.8c-1.3-1.4-2.5-2.9-3.7-4.4
	c-1.1-1.5-2.1-3-2.9-4.6c1-0.5,2-1,3-1.4c1-0.5,1.9-1,2.6-1.6c0.8-0.6,1.4-1.3,1.9-2c0.5-0.7,0.7-1.6,0.7-2.6c0-1-0.2-1.9-0.6-2.7
	c-0.4-0.8-0.9-1.5-1.5-2c-0.7-0.6-1.4-1-2.3-1.3c-0.9-0.3-1.8-0.4-2.8-0.4c-1.3,0-2.5,0.2-3.5,0.7c-1,0.4-1.8,1-2.5,1.8
	c-0.7,0.7-1.2,1.6-1.5,2.5c-0.3,1-0.5,1.9-0.5,2.9c0,0.8,0.2,1.7,0.6,2.9c0.4,1.1,0.9,2.4,1.5,3.7c-1.2,0.6-2.3,1.2-3.4,1.9
	c-1.1,0.7-2.1,1.4-3,2.3c-0.9,0.9-1.6,1.8-2.1,2.9c-0.5,1.1-0.8,2.3-0.8,3.7c0,1,0.2,1.9,0.5,2.7C402.3,180.7,402.8,181.4,403.4,182
	 M413.4,156.5c0.2-0.6,0.5-1.1,0.8-1.6c0.4-0.5,0.8-0.9,1.2-1.1c0.5-0.3,1-0.4,1.6-0.4c0.5,0,1,0.1,1.4,0.3c0.4,0.2,0.8,0.5,1.2,0.9
	c0.3,0.4,0.6,0.9,0.8,1.5c0.2,0.6,0.3,1.2,0.3,2c0,0.8-0.1,1.4-0.4,2.1c-0.3,0.6-0.7,1.2-1.2,1.7c-0.5,0.5-1.1,1-1.8,1.5
	c-0.7,0.4-1.4,0.9-2.2,1.3c-0.6-1.1-1-2.2-1.4-3.3c-0.3-1.1-0.5-2.1-0.5-3.1C413.1,157.6,413.2,157.1,413.4,156.5 M406.6,173
	c0.3-0.7,0.6-1.3,1.1-1.9c0.5-0.6,1.1-1.2,1.7-1.7c0.7-0.5,1.4-1,2.2-1.5c1,1.8,2,3.6,3.2,5.4c1.2,1.8,2.4,3.5,3.9,5
	c-1,0.8-2,1.5-3.1,2c-1.1,0.5-2.3,0.8-3.5,0.8c-0.9,0-1.7-0.2-2.4-0.5c-0.7-0.3-1.3-0.7-1.8-1.2c-0.5-0.5-0.9-1.2-1.1-1.9
	c-0.3-0.7-0.4-1.5-0.4-2.4C406.2,174.4,406.4,173.7,406.6,173"/>
<path fill="#57524B" d="M347.2,139.8c1.9-4.1,3.3-8,4.4-11.5c1.1-3.5,1.6-6.6,1.6-9.2c0-1.1-0.3-1.9-0.8-2.6c-0.5-0.7-1.3-1-2.4-1
	c-1.2,0-2.1,0.4-2.9,1.1c-0.7,0.7-1.1,1.6-1.1,2.7c0,0.8,0.3,1.4,1,1.8c0.6,0.4,1.2,0.7,1.8,0.9c0.6,0.2,0.9,0.5,0.9,1.1
	c0,1.8-0.5,4.1-1.6,7.1c-1.1,3-2.5,6.3-4.2,9.8c-1.7,3.6-3.6,7.4-5.8,11.3c-2.1,3.9-4.3,7.8-6.5,11.6c-2.2,3.8-4.3,7.4-6.4,10.8
	c-2,3.4-3.8,6.4-5.3,8.8c-0.2-3.2-0.4-6.5-0.7-9.9c-0.2-3.4-0.5-7.3-0.8-11.7c-0.3-4.4-0.6-9.5-1-15.2c-0.4-5.8-0.8-12.6-1.3-20.5
	c-0.1-0.9-0.2-1.7-0.3-2.4c-0.1-0.7-0.5-1.1-1.2-1.1c-0.8,0-1.4,0.4-2,1.1c-0.5,0.7-1,1.5-1.5,2.4c-3.8,7.7-7.2,14.5-10.2,20.2
	c-3,5.8-5.7,10.9-8,15.3c-2.4,4.4-4.5,8.3-6.4,11.6c-1.9,3.3-3.7,6.4-5.5,9.1c-0.2-9.6-0.5-18.6-1-27.2c-0.5-8.6-1.3-16.5-2.6-23.7
	c-1.2-7.3-2.9-13.8-5-19.6c-2.1-5.8-5-10.8-8.6-14.9c-3.6-4.1-7.9-7.3-13-9.4c-5.1-2.2-11.3-3.3-18.5-3.3c-6.3,0-12.1,0.9-17.3,2.8
	c-5.2,1.9-9.7,4.4-13.5,7.5c-3.8,3.1-6.7,6.8-8.7,10.8c-2,4.1-3.1,8.4-3.1,12.9c0,3.5,0.6,6.4,1.8,8.8c1.2,2.4,2.8,4.5,4.8,6.1
	c2,1.6,4.1,2.7,6.5,3.5c2.4,0.7,4.8,1.1,7.1,1.1c1.4,0,2.6-0.3,3.6-0.9c1-0.6,1.5-1.4,1.5-2.4c0-1.3-0.6-2-1.9-2
	c-0.6,0-1.1,0.2-1.5,0.5c-0.4,0.3-0.9,0.6-1.2,0.9c-0.4,0.3-0.8,0.6-1.2,0.9c-0.4,0.3-1,0.5-1.7,0.5c-1.3,0-2.7-0.3-4.3-0.9
	c-1.6-0.6-3.1-1.5-4.6-2.9c-1.5-1.3-2.7-3.1-3.7-5.3c-1-2.2-1.5-4.9-1.5-8c0-3.5,0.8-7,2.5-10.3c1.7-3.3,4-6.2,7.1-8.8
	c3.1-2.5,6.8-4.5,11-6.1c4.3-1.5,9.1-2.3,14.5-2.3c10,0,17.8,2.6,23.6,7.8c5.8,5.2,10.2,12.4,13.2,21.5c3,9.2,4.9,20.1,5.8,32.8
	c0.9,12.7,1.3,26.5,1.3,41.5c0,1,0.1,1.7,0.2,2.2c0.1,0.5,0.6,0.7,1.2,0.7c0.8,0,1.3-0.3,1.6-0.8c0.3-0.5,0.8-1.3,1.6-2.3
	c3.4-5.6,6.5-10.7,9.2-15.4c2.7-4.7,5.3-9.2,7.6-13.4c2.3-4.2,4.6-8.3,6.7-12.3c2.1-4,4.3-8.1,6.4-12.4c0.5,4.8,0.9,9.4,1.3,13.8
	c0.4,4.4,0.8,8.7,1.2,12.9c0.4,4.2,0.8,8.4,1.1,12.7c0.3,4.3,0.7,8.7,1.1,13.3c0.2,1.2,0.4,2.2,0.5,2.9c0.1,0.7,0.5,1,1.1,1
	c0.7,0,1.3-0.3,1.8-0.9c0.5-0.6,1.2-1.6,2.2-3c2.4-3.9,5-8.1,7.8-12.5c2.7-4.4,5.4-8.9,8-13.5c2.6-4.6,5.2-9.1,7.6-13.7
	C343.2,148.3,345.3,143.9,347.2,139.8"/>
<path fill="#57524B" d="M363.3,163c0.4,0,0.8-0.1,1.1-0.3c0.3-0.2,0.6-0.5,0.9-0.8c0.2-0.3,0.4-0.6,0.6-1c0.1-0.4,0.2-0.7,0.2-1
	c0-0.7-0.4-1.1-1.1-1.1c-0.4,0-0.8,0.1-1.1,0.3c-0.3,0.2-0.6,0.5-0.9,0.8c-0.2,0.3-0.4,0.6-0.6,1c-0.1,0.4-0.2,0.7-0.2,0.9
	c0,0.3,0.1,0.6,0.3,0.8C362.7,162.9,363,163,363.3,163"/>
<path fill="#57524B" d="M392.5,175c0.1-0.2,0.2-0.4,0.2-0.5c0-0.1-0.1-0.2-0.2-0.2c-0.2,0-0.5,0.2-0.8,0.7c-0.5,0.6-1,1.3-1.6,2
	c-0.6,0.7-1.3,1.4-2,2c-0.7,0.6-1.4,1.1-2.2,1.5c-0.8,0.4-1.5,0.6-2.2,0.6c-1.1,0-1.9-0.3-2.5-0.8c-0.6-0.5-0.9-1.3-0.9-2.3
	c0-0.5,0.1-1,0.2-1.5c1-0.1,2-0.3,3.1-0.8c1.1-0.4,2.1-1,3-1.6c0.9-0.7,1.7-1.4,2.2-2.3c0.6-0.9,0.9-1.8,0.9-2.7
	c0-0.6-0.2-1.2-0.7-1.6c-0.5-0.4-1.2-0.7-2.2-0.7c-1.6,0-3,0.3-4.2,1c-1.2,0.7-2.3,1.6-3.2,2.7c-0.9,1.1-1.6,2.3-2,3.6
	c-0.2,0.7-0.4,1.3-0.5,2c-0.3,0.4-0.5,0.7-0.8,1.1c-0.6,0.7-1.1,1.3-1.6,1.8c-0.5,0.5-1,0.9-1.5,1.3c-0.5,0.3-0.8,0.5-1.1,0.5
	c-0.5,0-0.9-0.1-1.2-0.4c-0.3-0.3-0.4-0.8-0.4-1.6c0-0.5,0.1-1.3,0.3-2.4c0.2-1.1,0.5-2.3,0.8-3.6c0.3-1.3,0.7-2.6,1-4
	c0.4-1.3,0.7-2.5,0.9-3.6h3.8c0.1,0,0.2,0,0.3-0.1c0.2-0.1,0.4-0.3,0.4-0.6c0-0.1-0.1-0.3-0.2-0.3c-0.1,0-0.1-0.1-0.2-0.1h-3.8
	c0.3-1.1,0.6-2.2,0.9-3.3c0.3-1.1,0.7-2.2,1.1-3.2c0.1-0.3,0.3-0.5,0.4-0.8c0.2-0.2,0.2-0.3,0.2-0.4c0-0.2-0.1-0.3-0.3-0.3
	c-0.2,0-0.6,0.1-1.1,0.3c-0.5,0.2-1.1,0.5-1.8,0.9c-0.7,0.4-1.1,1-1.3,1.7l-1.2,4.9h-1.7c-0.1,0-0.2,0-0.4,0.1
	c-0.2,0.1-0.3,0.3-0.3,0.6c0,0.1,0.1,0.3,0.2,0.3c0.1,0,0.2,0.1,0.2,0.1h1.6c-0.2,1-0.6,2.3-1,3.7c-0.4,1.4-0.8,2.8-1.1,4.2
	c-0.2,0.8-0.4,1.5-0.5,2.2c-0.5,0.7-1,1.3-1.6,2c-0.6,0.7-1.1,1.3-1.6,1.8c-0.5,0.5-1,0.9-1.4,1.3c-0.5,0.3-0.8,0.5-1.1,0.5
	c-0.5,0-0.8-0.1-1-0.3c-0.2-0.2-0.3-0.6-0.3-1.1c0-0.5,0.1-1.4,0.4-2.5c0.2-1.1,0.5-2.3,0.8-3.5c0.3-1.2,0.6-2.3,1-3.3
	c0.3-1,0.6-1.6,0.7-1.9c0.2-0.3,0.3-0.5,0.5-0.8c0.1-0.2,0.2-0.4,0.2-0.5c0-0.1-0.1-0.2-0.2-0.2c-0.2,0-0.3,0-0.5,0.1
	c-0.2,0.1-0.4,0.1-0.7,0.2c-0.5,0.2-1.1,0.6-1.8,1c-0.7,0.4-1.1,1-1.3,1.7c-0.5,2.1-1,3.8-1.3,5c0,0.1,0,0.2-0.1,0.3
	c0,0-0.1,0.1-0.1,0.1c-0.5,0.7-1.1,1.4-1.6,2.1c-0.6,0.7-1.1,1.3-1.6,1.8c-0.5,0.5-1,0.9-1.5,1.3c-0.5,0.3-0.8,0.5-1.1,0.5
	c-0.7,0-1.1-0.4-1.1-1.1c0-0.7,0.1-1.5,0.3-2.3c0.2-0.9,0.5-1.8,0.7-2.7c0.2-0.9,0.5-1.8,0.7-2.7c0.2-0.9,0.3-1.7,0.3-2.5
	c0-0.8-0.2-1.4-0.6-1.9c-0.4-0.4-1.1-0.6-2.1-0.6c-1,0-2,0.3-2.9,0.9c-1,0.6-1.9,1.3-2.7,2.2c-0.9,0.9-1.6,1.7-2.3,2.7
	c-0.7,0.9-1.2,1.7-1.6,2.3l2-7.5c0.4-1.7,1-3.6,1.6-5.6c0.6-2.1,1.3-4,2.1-5.7c0.8-1.8,1.8-3.3,2.9-4.4c1.1-1.2,2.4-1.8,3.9-1.8
	c1,0,1.7,0.1,2.2,0.4c0.5,0.3,0.8,0.7,1,1.1c0.2,0.2,0.3,0.3,0.5,0.3c0.4,0,0.6-0.1,0.6-0.4c0-0.1,0-0.3,0-0.3
	c0-0.1-0.1-0.1-0.1-0.2c-0.3-0.5-0.7-0.9-1.3-1.3c-0.6-0.3-1.4-0.5-2.5-0.5c-2,0-3.8,0.6-5.3,1.8c-1.5,1.2-2.9,3-4.1,5.2
	c-1.2,2.2-2.3,4.9-3.4,8.1c-1,3.2-2,6.7-3.1,10.6c-0.1,0.5-0.3,1.1-0.5,1.9s-0.4,1.4-0.6,2.1c-0.2,0.7-0.4,1.3-0.5,1.8
	c-0.2,0.5-0.3,0.9-0.4,1.1c-0.1,0.3-0.3,0.5-0.4,0.7c-0.1,0.2-0.2,0.3-0.2,0.5c0,0.1,0.1,0.2,0.3,0.2c0.3,0,0.6-0.1,1-0.3
	c0.5-0.2,1.1-0.6,1.8-1c0.6-0.4,1.1-1,1.3-1.7c0.2-0.8,0.5-1.6,0.9-2.3c0.4-0.8,0.8-1.5,1.2-2.3c0.3-0.5,0.7-1.1,1.3-1.9
	c0.6-0.8,1.1-1.5,1.8-2.3c0.6-0.7,1.3-1.4,2-1.9c0.7-0.5,1.3-0.8,1.9-0.8c0.5,0,0.8,0.1,1,0.3c0.2,0.2,0.3,0.6,0.3,1.1
	c0,0.8-0.1,1.6-0.3,2.5c-0.2,0.9-0.4,1.8-0.7,2.7c-0.2,0.9-0.5,1.8-0.7,2.7c-0.2,0.9-0.3,1.8-0.3,2.7c0,0.8,0.2,1.4,0.5,1.8
	c0.3,0.4,0.9,0.6,1.7,0.6c0.8,0,1.6-0.3,2.4-0.8c0.8-0.5,1.6-1.1,2.3-1.9c0.7-0.7,1.4-1.5,2-2.3c0.3-0.4,0.6-0.8,0.9-1.2
	c-0.1,0.4-0.2,0.7-0.2,1c-0.2,0.7-0.3,1.3-0.3,1.6c0,0.3-0.1,0.6-0.1,0.8c0,0.8,0.2,1.5,0.5,2c0.3,0.5,1,0.8,1.9,0.8
	c0.8,0,1.6-0.3,2.4-0.8c0.8-0.5,1.6-1.1,2.3-1.9c0.7-0.7,1.4-1.5,2.1-2.3c0.3-0.3,0.5-0.6,0.7-0.9c-0.2,1.1-0.4,2-0.4,2.5
	c0,1,0.2,1.8,0.7,2.4c0.5,0.6,1.2,0.9,2.3,0.9c0.8,0,1.6-0.3,2.4-0.8c0.8-0.5,1.6-1.1,2.3-1.9c0.7-0.7,1.4-1.5,2-2.3
	c0.1-0.1,0.2-0.3,0.3-0.4c0,0.2-0.1,0.4-0.1,0.6c0,1.6,0.5,2.8,1.5,3.6c1,0.8,2.2,1.2,3.7,1.2c1.1,0,2.2-0.3,3.3-0.8
	c1-0.5,2-1.1,2.9-1.9c0.9-0.7,1.7-1.5,2.3-2.3c0.7-0.8,1.2-1.5,1.6-2.1C392.3,175.4,392.4,175.1,392.5,175 M382,171.7
	c0.5-1,1.1-1.8,1.7-2.5c0.6-0.6,1.2-1.1,1.8-1.3c0.6-0.3,1.1-0.4,1.5-0.4c1.2,0,1.8,0.5,1.8,1.5c0,0.8-0.3,1.6-0.8,2.3
	c-0.6,0.8-1.2,1.5-2.1,2.1c-0.8,0.6-1.7,1.1-2.6,1.5c-0.9,0.4-1.8,0.6-2.6,0.6C381,174,381.5,172.8,382,171.7"/>
<path fill="#57524B" d="M505.1,145.2c1.7-5.2,2.5-10.2,2.5-15.1c0-5-1.2-9-3.6-11.8c-2.4-2.9-5.8-4.3-10.3-4.3
	c-3.2,0-6.3,0.9-9.3,2.7c-3,1.8-5.9,4-8.6,6.7c-2.7,2.7-5.2,5.5-7.3,8.5c-2.2,3-3.9,5.7-5.1,8.1c0.6-2,1.1-4,1.6-6.3
	c0.5-2.2,1-4.3,1.6-6.3c0.6-2,1-3.7,1.5-5.2c0.4-1.5,0.8-2.6,1-3.3c0.7-1.1,1.3-2.1,1.7-2.8c0.4-0.8,0.6-1.4,0.6-2
	c0-0.4-0.3-0.6-0.8-0.6c-0.6,0-1.1,0.1-1.7,0.3c-0.6,0.2-1.3,0.5-2.3,0.7c-1.7,0.8-3.7,2.1-6.1,3.8c-2.4,1.7-3.8,3.8-4.4,6.5
	l-13,55.9c-2.5,11.2-5.2,21.4-8,30.8c-2.8,9.3-5.8,17.4-8.9,24.2c-3.1,6.8-6.5,12-9.9,15.8c-3.5,3.8-7.3,5.7-11.3,5.7
	c-3.2,0-5.6-0.6-7.1-1.7c-1.5-1.1-2.7-2.4-3.6-4c-0.3-0.8-0.8-1.3-1.7-1.3c-0.4,0-0.8,0.2-1.2,0.6c-0.3,0.4-0.5,0.8-0.5,1
	c0,0.7,0.1,1.3,0.4,1.9c1.1,2.2,2.6,3.9,4.4,4.9c1.8,1,4.5,1.6,8.2,1.6c6,0,11.5-2.1,16.6-6.2c5.1-4.1,9.8-10.2,14.2-18.2
	c4.4-8,8.5-17.9,12.2-29.7c3.8-11.8,7.3-25.3,10.5-40.5c1.7,2.8,3.9,4.9,6.7,6.4c2.8,1.5,5.9,2.2,9.2,2.2c5,0,9.6-1.4,13.8-4.2
	c4.2-2.8,7.8-6.3,10.8-10.6C501,155,503.4,150.3,505.1,145.2 M493.8,141.2c-1,4.5-2.5,8.8-4.5,13c-2,4.2-4.5,7.8-7.4,10.8
	c-2.9,3-6.4,4.5-10.3,4.5c-2.5,0-5.2-0.9-8-2.8c-2.8-1.9-4.2-4.8-4.2-8.7c0-2.6,1-6.1,3.1-10.4c2.1-4.3,4.6-8.4,7.5-12.6
	c2.9-4.1,6-7.6,9.3-10.6c3.3-2.9,6.2-4.4,8.7-4.4c4.7,0,7.1,3.4,7.1,10C495.2,133,494.7,136.7,493.8,141.2"/>
<path fill="#57524B" d="M543.4,148.5c-1.5,0-2.9,0.7-4.2,2c-1.3,1.3-2.5,3.5-3.6,6.6c-1.1,3-2.1,6-2.8,8.9c-0.8,2.9-1.5,5.8-2.2,8.7
	c0,0.1,0,0.2-0.1,0.3c0,0,0,0,0,0c-0.5,0.5-0.9,0.9-1.3,1.2c-0.4,0.3-1,0.4-1.7,0.4c-0.3,0-0.6,0-0.7-0.1c-0.2-0.1-0.3-0.1-0.6-0.2
	c0.3-0.7,0.6-1.5,0.7-2.2c0.2-0.7,0.2-1.5,0.2-2.3c0-0.7-0.1-1.3-0.2-1.9c-0.2-0.6-0.4-1.2-0.8-1.6c-0.4-0.5-0.8-0.8-1.4-1.1
	c-0.6-0.3-1.2-0.4-2-0.4c-1.6,0-2.9,0.4-4.1,1.1c-1.2,0.7-2.2,1.6-3,2.7c-0.8,1.1-1.4,2.2-1.8,3.5c-0.2,0.6-0.3,1.1-0.4,1.7
	c-0.2,0.2-0.5,0.4-0.7,0.6c-0.4,0.3-1,0.4-1.7,0.4c-0.3,0-0.6,0-0.7-0.1c-0.2-0.1-0.3-0.1-0.6-0.2c0.3-0.7,0.6-1.5,0.7-2.2
	c0.2-0.7,0.2-1.5,0.2-2.3c0-0.7-0.1-1.3-0.2-1.9c-0.2-0.6-0.4-1.2-0.8-1.6c-0.4-0.5-0.8-0.8-1.4-1.1c-0.6-0.3-1.3-0.4-2-0.4
	c-1.6,0-2.9,0.4-4.1,1.1c-1.2,0.7-2.2,1.6-3,2.7c-0.8,1.1-1.4,2.2-1.8,3.5s-0.6,2.5-0.6,3.7c0,1.8,0.5,3,1.5,3.9
	c1,0.8,2.3,1.3,3.8,1.3c1.4,0,2.8-0.5,4.1-1.4c1.3-0.9,2.4-2.3,3.3-4.1c0.2,0.1,0.4,0.1,0.7,0.2c0.2,0,0.5,0.1,0.8,0.1
	c0.9,0,1.7-0.2,2.2-0.6c0.1-0.1,0.2-0.1,0.2-0.2c0,0.3-0.1,0.6-0.1,0.9c0,1.8,0.5,3,1.5,3.9c1,0.8,2.3,1.3,3.8,1.3
	c1.4,0,2.8-0.5,4.1-1.4c1.3-0.9,2.4-2.3,3.3-4.1c0.2,0.1,0.4,0.1,0.7,0.2c0.2,0,0.5,0.1,0.8,0.1c0.9,0,1.7-0.2,2.2-0.6
	c0.2-0.2,0.5-0.3,0.7-0.5c-0.1,0.4-0.2,0.8-0.3,1.2c-0.2,0.8-0.2,1.4-0.2,1.8c0,1,0.2,1.8,0.7,2.4c0.5,0.6,1.2,1,2.3,1
	c0.8,0,1.6-0.3,2.4-0.8c0.8-0.5,1.6-1.1,2.3-1.9c0.7-0.7,1.4-1.5,2-2.3c0.6-0.8,1.1-1.5,1.6-2.1c0.2-0.3,0.4-0.5,0.5-0.7
	c0.1-0.2,0.2-0.4,0.2-0.5c0-0.1-0.1-0.2-0.2-0.2c-0.2,0-0.5,0.2-0.8,0.7c-0.5,0.7-1.1,1.4-1.6,2.1c-0.6,0.7-1.1,1.3-1.6,1.8
	c-0.5,0.5-1,0.9-1.5,1.3c-0.5,0.3-0.8,0.5-1.1,0.5c-0.5,0-0.9-0.1-1.2-0.4c-0.3-0.3-0.4-0.8-0.4-1.6c0-0.3,0-0.8,0.1-1.3
	c0.1-0.5,0.3-1.4,0.6-2.6l0.9-3.4c1.1-1.3,2.4-2.9,3.7-4.6c1.3-1.7,2.5-3.5,3.6-5.3c1.1-1.8,2-3.6,2.8-5.3c0.7-1.8,1.1-3.3,1.1-4.8
	c0-0.8-0.2-1.5-0.6-2C544.7,148.7,544.1,148.5,543.4,148.5 M509.4,172.7c0,0.2,0,0.8-0.2,1.4c-0.4,1.2-0.4,1.2-1,2.8
	c-0.7,1.6-1.5,2.7-2.5,3.4c-1,0.7-2,1.1-3,1.1c-0.7,0-1.3-0.3-1.8-0.8c-0.4-0.6-0.7-1.5-0.7-2.7c0-0.7,0.1-1.7,0.4-2.9
	c0.3-1.2,0.7-2.3,1.2-3.4c0.5-1.1,1.2-2,1.9-2.8c0.8-0.8,1.6-1.2,2.6-1.2c0.6,0,1.1,0.1,1.5,0.4c0.4,0.3,0.7,0.6,1,1
	c0.2,0.4,0.4,0.9,0.5,1.4c0.1,0.5,0.1,1,0.1,1.6C509.5,172.2,509.5,172.5,509.4,172.7 M526,172.7c0,0.2-0.1,0.5-0.1,0.6
	c-0.3,1.4-0.4,1.9-1.2,3.6c-0.7,1.6-1.5,2.7-2.5,3.4c-1,0.7-2,1.1-3,1.1c-0.7,0-1.3-0.3-1.8-0.8c-0.4-0.6-0.7-1.5-0.7-2.7
	c0-0.7,0.1-1.7,0.4-2.9c0.3-1.2,0.7-2.3,1.2-3.4c0.5-1.1,1.2-2,1.9-2.8c0.8-0.8,1.6-1.2,2.6-1.2c0.6,0,1.1,0.1,1.5,0.4
	c0.4,0.3,0.7,0.6,1,1c0.2,0.4,0.4,0.9,0.5,1.4c0.1,0.5,0.1,1,0.1,1.6C526,172.2,526,172.5,526,172.7 M543.8,155.6
	c-0.7,1.6-1.5,3.2-2.5,4.9c-1,1.7-2,3.3-3.2,4.8c-1.1,1.5-2.2,2.8-3.1,3.9c0.2-0.9,0.5-1.8,0.7-2.7c0.2-0.9,0.5-1.8,0.8-2.7
	c0.3-0.9,0.6-1.9,0.9-2.9c0.3-1,0.7-2.1,1.1-3.3c0.9-3,1.9-5,2.7-6.2c0.9-1.2,1.7-1.7,2.3-1.7c0.7,0,1.1,0.6,1.1,1.7
	C544.8,152.6,544.4,154,543.8,155.6"/>
<path fill="#57524B" d="M561.3,167.5h-4.9l-2.1,14.7h4.9c2,0,3.7-0.7,5.2-2.2c1.3-1.4,2.2-3.1,2.5-5.2c0.3-2-0.1-3.7-1-5.1
	C564.8,168.2,563.3,167.5,561.3,167.5 M566,174.8c-0.3,2-1.1,3.7-2.5,4.8c-1.2,1.1-2.6,1.7-4.2,1.7h-4.1l1.8-13.1h4.1
	c1.7,0,3,0.7,3.9,2C566,171.5,566.2,173,566,174.8"/>
<path fill="#57524B" d="M578.5,167.5h-4.9l-2.1,14.7h4.9c2,0,3.7-0.7,5.2-2.2c1.3-1.4,2.2-3.1,2.5-5.2c0.3-2-0.1-3.7-1-5.1
	C582,168.2,580.5,167.5,578.5,167.5 M583.2,174.8c-0.3,2-1.1,3.7-2.5,4.8c-1.3,1.1-2.6,1.7-4.2,1.7h-4.1l1.8-13.1h4.1
	c1.7,0,3,0.7,3.9,2C583.1,171.5,583.4,173,583.2,174.8"/>
<path fill="#57524B" d="M595.6,174.6c-0.4-0.3-0.9-0.6-1.5-0.9c-1-0.5-1.6-0.9-1.9-1.1c-0.5-0.5-0.8-1.1-0.7-1.8
	c0.1-0.8,0.5-1.4,1.1-1.9c0.6-0.5,1.3-0.7,2.1-0.7c0.8,0,1.4,0.2,1.8,0.5c0.2,0.1,0.3,0.3,0.5,0.4c0.1,0.2,0.3,0.4,0.4,0.6l0.8-0.4
	c-0.5-1.3-1.7-1.9-3.4-1.9c-1,0-2,0.3-2.8,0.9c-0.8,0.6-1.3,1.4-1.4,2.5c-0.2,1,0.1,1.8,0.7,2.5c0.4,0.4,1.1,0.8,2.2,1.4
	c1.2,0.6,1.9,1,2.2,1.3c0.6,0.6,0.9,1.4,0.7,2.4c-0.2,1-0.6,1.8-1.2,2.4c-0.7,0.5-1.6,0.8-2.6,0.8c-1.9,0-2.9-0.9-3.1-2.6l-0.9,0.3
	c0.4,2.1,1.7,3.2,3.9,3.2c0.7,0,1.4-0.1,1.9-0.3c1.7-0.6,2.6-1.8,2.9-3.7c0.2-1.2-0.1-2.2-0.8-2.9
	C596.3,175.2,596,174.9,595.6,174.6"/>
</svg>
